<svg width="23" height="23" viewBox="0 0 23 23" fill="none" xmlns="http://www.w3.org/2000/svg">
<g clip-path="url(#clip0_2523_5174)">
<path fill-rule="evenodd" clip-rule="evenodd" d="M23 23H18.6875L15.5779 19.1728C14.3245 19.7918 12.9316 20.125 11.5 20.125C8.76744 20.125 6.17605 18.9113 4.42671 16.812L0 11.5L4.42671 6.18795C4.52797 6.06644 4.63204 5.9479 4.73881 5.83238L0 0H4.3125L23 23ZM7.69428 9.46988C7.37085 10.0749 7.1875 10.766 7.1875 11.5C7.1875 13.8817 9.11828 15.8125 11.5 15.8125C11.9194 15.8125 12.3249 15.7526 12.7083 15.641L7.69428 9.46988Z" fill="#3DD4C3"/>
<path d="M23.0034 11.5L20.4559 14.557L10.9766 2.89006C11.1515 2.88005 11.3271 2.875 11.5034 2.875C14.2359 2.875 16.8273 4.08874 18.5768 6.18795L23.0034 11.5Z" fill="#3DD4C3"/>
</g>
<defs>
<clipPath id="clip0_2523_5174">
<rect width="23" height="23" fill="white"/>
</clipPath>
</defs>
</svg>
