<svg width="23" height="23" viewBox="0 0 23 23" fill="none" xmlns="http://www.w3.org/2000/svg">
<path fill-rule="evenodd" clip-rule="evenodd" d="M0 11.5L4.42671 6.18795C6.17605 4.08874 8.76744 2.875 11.5 2.875C14.2326 2.875 16.8239 4.08874 18.5734 6.18795L23 11.5L18.5734 16.812C16.8239 18.9113 14.2326 20.125 11.5 20.125C8.76744 20.125 6.17605 18.9113 4.42671 16.812L0 11.5ZM11.5 15.8125C13.8817 15.8125 15.8125 13.8817 15.8125 11.5C15.8125 9.11828 13.8817 7.1875 11.5 7.1875C9.11828 7.1875 7.1875 9.11828 7.1875 11.5C7.1875 13.8817 9.11828 15.8125 11.5 15.8125Z" fill="#3DD4C3"/>
</svg>
