<svg
  width="20"
  height="20"
  viewBox="0 0 130 130"
  fill="none"
  xmlns="http://www.w3.org/2000/svg"
>
  <path
    d="M112.328 101.041C112.851 100.344 113.079 99.4707 112.965 98.6077C112.85 97.7447 112.402 96.961 111.716 96.425C103.091 89.5502 92.8888 84.9339 82.0314 82.9937L78.8377 82.4031V76.0594C82.2408 74.1819 85.1631 71.542 87.3756 68.3466C89.5882 65.1511 91.0309 61.4868 91.5908 57.6406C94.1507 57.3435 96.5004 56.0797 98.1593 54.1076C99.8183 52.1356 100.661 49.6042 100.516 47.0312C100.533 44.699 99.855 42.4145 98.5689 40.4688C99.0502 37.9313 101.303 23.6906 92.9033 14.2188C84.022 4.35312 66.9158 4.41875 66.2377 4.375C65.4921 4.38167 64.7708 4.64037 64.1909 5.10902C63.6111 5.57767 63.2068 6.2287 63.0439 6.95625C62.7146 8.5229 62.4809 10.1081 62.3439 11.7031C56.7163 11.5766 51.1434 12.8309 46.1127 15.3563C32.3314 22.6625 28.6127 39.9656 28.6127 40.7094C28.53 41.1356 28.5338 41.574 28.624 41.9986C28.7142 42.4233 28.8889 42.8255 29.1377 43.1812C28.7297 44.4237 28.5229 45.7235 28.5252 47.0312C28.492 49.6809 29.3727 52.2611 31.0189 54.3375C31.8037 55.3389 32.7974 56.1572 33.9308 56.7352C35.0642 57.3132 36.31 57.6372 37.5814 57.6844C38.3809 63.3795 41.1428 68.6171 45.3908 72.4938C46.8994 73.877 48.5575 75.0876 50.3345 76.1031V82.4469L47.1627 83.0375C36.2589 84.9559 26.0088 89.5734 17.347 96.4688C16.6562 97.0013 16.204 97.7856 16.0893 98.6503C15.9745 99.515 16.2065 100.39 16.7345 101.084C22.3468 108.435 29.5791 114.393 37.869 118.494C46.1588 122.594 55.2828 124.728 64.5314 124.728C73.78 124.728 82.904 122.594 91.1939 118.494C99.4837 114.393 106.716 108.435 112.328 101.084V101.041ZM64.5314 99.2031C61.4974 99.2241 58.5463 98.2138 56.1617 96.3379C53.7771 94.462 52.1004 91.8317 51.4064 88.8781L54.0314 88.5938C54.795 88.4973 55.5003 88.1356 56.0241 87.5717C56.5479 87.0079 56.8569 86.2779 56.897 85.5094C56.897 85.5094 56.897 73.9156 56.897 73.85C56.8566 73.262 56.6585 72.6958 56.3237 72.2108C55.9888 71.7258 55.5294 71.3399 54.9939 71.0938C53.1151 70.2181 51.3814 69.0599 49.8533 67.6594C47.9986 65.9861 46.512 63.9456 45.4878 61.6674C44.4635 59.3891 43.9239 56.9228 43.9033 54.425V46.7687H46.572C52.257 46.9079 57.8895 45.6537 62.9783 43.1156C66.2387 41.3421 69.1335 38.9669 71.5095 36.1156C75.5629 39.1073 80.2219 41.1755 85.1595 42.175V54.3375C85.0985 57.9024 84.0173 61.3752 82.044 64.3447C80.0708 67.3143 77.288 69.6564 74.0252 71.0938C73.4706 71.3575 73.0018 71.7727 72.6728 72.2913C72.3438 72.8099 72.1681 73.4109 72.1658 74.025V85.225C72.1643 85.9919 72.4333 86.7347 72.9254 87.3229C73.4175 87.911 74.1013 88.3068 74.8564 88.4406L77.6345 88.8562C76.9457 91.8102 75.274 94.4427 72.8935 96.3225C70.513 98.2023 67.5646 99.218 64.5314 99.2031Z"
    fill="currentColor"
  />
  <path
    d="M3.28125 24.5219C4.15149 24.5219 4.98609 24.1762 5.60144 23.5608C6.2168 22.9455 6.5625 22.1109 6.5625 21.2406V6.5625H21.2406C22.1109 6.5625 22.9455 6.2168 23.5608 5.60144C24.1762 4.98609 24.5219 4.15149 24.5219 3.28125C24.5219 2.41101 24.1762 1.57641 23.5608 0.961056C22.9455 0.345702 22.1109 1.29676e-08 21.2406 0H3.28125C2.41101 0 1.57641 0.345702 0.961056 0.961056C0.345702 1.57641 0 2.41101 0 3.28125V21.2406C0 22.1109 0.345702 22.9455 0.961056 23.5608C1.57641 24.1762 2.41101 24.5219 3.28125 24.5219Z"
    fill="currentColor"
  />
  <path
    d="M21.2406 122.5H6.5625V107.822C6.5625 106.952 6.2168 106.117 5.60144 105.502C4.98609 104.886 4.15149 104.541 3.28125 104.541C2.41101 104.541 1.57641 104.886 0.961056 105.502C0.345702 106.117 1.29676e-08 106.952 0 107.822V125.781C0 126.651 0.345702 127.486 0.961056 128.101C1.57641 128.717 2.41101 129.062 3.28125 129.062H21.2406C22.1109 129.062 22.9455 128.717 23.5608 128.101C24.1762 127.486 24.5219 126.651 24.5219 125.781C24.5219 124.911 24.1762 124.076 23.5608 123.461C22.9455 122.846 22.1109 122.5 21.2406 122.5Z"
    fill="currentColor"
  />
  <path
    d="M125.782 104.541C124.911 104.541 124.077 104.886 123.461 105.502C122.846 106.117 122.5 106.952 122.5 107.822V122.5H107.822C106.952 122.5 106.117 122.846 105.502 123.461C104.887 124.076 104.541 124.911 104.541 125.781C104.541 126.651 104.887 127.486 105.502 128.101C106.117 128.717 106.952 129.062 107.822 129.062H125.782C126.652 129.062 127.486 128.717 128.102 128.101C128.717 127.486 129.063 126.651 129.063 125.781V107.822C129.063 106.952 128.717 106.117 128.102 105.502C127.486 104.886 126.652 104.541 125.782 104.541Z"
    fill="currentColor"
  />
  <path
    d="M125.782 0H107.822C106.952 0 106.117 0.345702 105.502 0.961056C104.887 1.57641 104.541 2.41101 104.541 3.28125C104.541 4.15149 104.887 4.98609 105.502 5.60144C106.117 6.2168 106.952 6.5625 107.822 6.5625H122.5V21.2406C122.5 22.1109 122.846 22.9455 123.461 23.5608C124.077 24.1762 124.911 24.5219 125.782 24.5219C126.652 24.5219 127.486 24.1762 128.102 23.5608C128.717 22.9455 129.063 22.1109 129.063 21.2406V3.28125C129.063 2.41101 128.717 1.57641 128.102 0.961056C127.486 0.345702 126.652 0 125.782 0Z"
    fill="currentColor"
  />
</svg>
